<svg width="28" height="20" viewBox="0 0 28 20" fill="none" xmlns="http://www.w3.org/2000/svg">
<path d="M14 0.625C7.75 0.625 2.4125 4.5125 0.25 10C2.4125 15.4875 7.75 19.375 14 19.375C20.25 19.375 25.5875 15.4875 27.75 10C25.5875 4.5125 20.25 0.625 14 0.625ZM14 16.25C10.55 16.25 7.75 13.45 7.75 10C7.75 6.55 10.55 3.75 14 3.75C17.45 3.75 20.25 6.55 20.25 10C20.25 13.45 17.45 16.25 14 16.25ZM14 6.25C11.925 6.25 10.25 7.925 10.25 10C10.25 12.075 11.925 13.75 14 13.75C16.075 13.75 17.75 12.075 17.75 10C17.75 7.925 16.075 6.25 14 6.25Z" fill="#175C54"/>
</svg>
