<svg xmlns="http://www.w3.org/2000/svg" width="72" height="24.418" viewBox="0 0 72 24.418"><defs><style>.a{fill:#fff;}</style></defs><g transform="translate(-150 -23)"><path class="a" d="M107.965,10.144a6.857,6.857,0,0,0-3.52-.934,6.758,6.758,0,0,0-3.5.934A6.865,6.865,0,0,0,98.456,12.7a7.25,7.25,0,0,0-.916,3.609V27.652a1.676,1.676,0,0,0,.487,1.237,1.755,1.755,0,0,0,2.4,0,1.685,1.685,0,0,0,.469-1.228V21.931a6.294,6.294,0,0,0,7.312.523,6.46,6.46,0,0,0,2.323-2.555,7.7,7.7,0,0,0,.84-3.591,7.318,7.318,0,0,0-.9-3.6A6.791,6.791,0,0,0,107.965,10.144Zm-.348,8.192a3.7,3.7,0,0,1-1.318,1.407,3.645,3.645,0,0,1-3.716,0,3.559,3.559,0,0,1-1.3-1.4,4.26,4.26,0,0,1-.478-2.028,4.371,4.371,0,0,1,.478-2.046,3.554,3.554,0,0,1,1.3-1.411,3.645,3.645,0,0,1,3.716,0,3.663,3.663,0,0,1,1.318,1.416,4.485,4.485,0,0,1,0,4.065Z" transform="translate(96.169 18.029)"/><path class="a" d="M142.844,12.645a6.554,6.554,0,0,0-2.47-2.528,6.967,6.967,0,0,0-3.542-.907,7.089,7.089,0,0,0-3.578.907,6.425,6.425,0,0,0-2.474,2.533,7.573,7.573,0,0,0-.88,3.658,7.473,7.473,0,0,0,.88,3.636,6.425,6.425,0,0,0,2.474,2.533,7.485,7.485,0,0,0,7.142,0,6.44,6.44,0,0,0,2.461-2.528,7.522,7.522,0,0,0,.88-3.636A7.455,7.455,0,0,0,142.844,12.645ZM140,18.366a3.378,3.378,0,0,1-1.286,1.385,3.8,3.8,0,0,1-3.77,0,3.47,3.47,0,0,1-1.3-1.385,4.317,4.317,0,0,1-.478-2.055,4.4,4.4,0,0,1,.478-2.068,3.508,3.508,0,0,1,1.3-1.4,3.8,3.8,0,0,1,3.77,0A3.407,3.407,0,0,1,140,14.239a4.481,4.481,0,0,1,.469,2.072A4.381,4.381,0,0,1,140,18.366Z" transform="translate(78.263 18.029)"/><path class="a" d="M8.314,15.353a1.406,1.406,0,0,0-1.076-.5h-.8a1.085,1.085,0,0,1-.88-.456,1.948,1.948,0,0,1-.4-1.273V7.018H6.652A1.586,1.586,0,0,0,7.778,6.6a1.448,1.448,0,0,0,.46-1.076A1.514,1.514,0,0,0,7.778,4.4a1.586,1.586,0,0,0-1.126-.415H5.16V1.4A1.654,1.654,0,0,0,4.691.2,1.6,1.6,0,0,0,3.5-.28,1.609,1.609,0,0,0,2.315.2,1.654,1.654,0,0,0,1.846,1.4V3.977H1.266A1.586,1.586,0,0,0,.14,4.392,1.507,1.507,0,0,0-.32,5.518,1.441,1.441,0,0,0,.14,6.594a1.586,1.586,0,0,0,1.126.415h.585v6.1a5.592,5.592,0,0,0,.594,2.582A4.708,4.708,0,0,0,4.1,17.532a4.229,4.229,0,0,0,2.349.6h.42a1.891,1.891,0,0,0,1.309-.371,1.581,1.581,0,0,0,.558-1.233,1.732,1.732,0,0,0-.42-1.179Z" transform="translate(150.32 23.28)"/><path class="a" d="M29.513,10.15a6.272,6.272,0,0,0-3.354-.88,6.763,6.763,0,0,0-3.5.911,6.42,6.42,0,0,0-2.425,2.541,7.679,7.679,0,0,0-.867,3.645,7.276,7.276,0,0,0,.916,3.645,6.576,6.576,0,0,0,2.555,2.524,7.5,7.5,0,0,0,6.07.473,6.915,6.915,0,0,0,2.108-1.117,1.37,1.37,0,0,0,.567-1.112A1.526,1.526,0,0,0,31,19.6a1.479,1.479,0,0,0-1.023-.357,1.686,1.686,0,0,0-1.067.362,3.885,3.885,0,0,1-1.108.567,4.177,4.177,0,0,1-3.989-.67,3.573,3.573,0,0,1-1.179-1.8h8.254a1.526,1.526,0,0,0,1.563-1.545,8.092,8.092,0,0,0-.75-3.542A5.681,5.681,0,0,0,29.513,10.15ZM22.675,14.8a3.537,3.537,0,0,1,1.045-1.666,3.5,3.5,0,0,1,2.439-.826,2.893,2.893,0,0,1,2.153.808,3.424,3.424,0,0,1,.916,1.684Z" transform="translate(139.424 17.996)"/><path class="a" d="M67.661,9.27a2.667,2.667,0,0,0-2.64,2.689v5.735a.621.621,0,1,0,1.242,0V11.959a1.4,1.4,0,1,1,2.8,0V26.734c0,.049,0,.1-.009.147a1.322,1.322,0,0,1-1.309,1.291,1.3,1.3,0,0,1-1.09-.594c-.013-.018-.018-.027-.018-.031L56.463,10.775A2.83,2.83,0,0,0,54.15,9.27a2.667,2.667,0,0,0-2.64,2.689V23.1a2.64,2.64,0,1,0,5.279.009L56.8,17.6a.631.631,0,0,0-.612-.643h-.009a.626.626,0,0,0-.621.625L55.548,23.1a1.4,1.4,0,1,1-2.8,0V11.959a1.412,1.412,0,0,1,1.4-1.425,1.638,1.638,0,0,1,1.228.849c0,.013.013.022.018.036l10.179,16.79a2.813,2.813,0,0,0,.17.237,2.5,2.5,0,0,0,.621.567,2.327,2.327,0,0,0,1.117.4c.022,0,.237.013.264.013a2.58,2.58,0,0,0,2.559-2.6V11.959A2.671,2.671,0,0,0,67.661,9.27Z" transform="translate(121.64 17.996)"/></g></svg>