<svg xmlns="http://www.w3.org/2000/svg" width="95.719" height="32.462" viewBox="0 0 95.719 32.462"><defs><style>.a{fill:#00baa4;}</style></defs><path class="a" d="M111.4,10.451A9.117,9.117,0,0,0,106.72,9.21a8.985,8.985,0,0,0-4.655,1.241,9.126,9.126,0,0,0-3.307,3.4,9.638,9.638,0,0,0-1.217,4.8V33.728a2.228,2.228,0,0,0,.647,1.645,2.333,2.333,0,0,0,3.195-.006,2.24,2.24,0,0,0,.623-1.633V26.121a8.367,8.367,0,0,0,9.72.695,8.588,8.588,0,0,0,3.088-3.4,10.231,10.231,0,0,0,1.116-4.774,9.728,9.728,0,0,0-1.2-4.792A9.028,9.028,0,0,0,111.4,10.451Zm-.463,10.89a4.92,4.92,0,0,1-1.752,1.87,4.845,4.845,0,0,1-4.94,0,4.731,4.731,0,0,1-1.734-1.864,5.664,5.664,0,0,1-.635-2.7,5.811,5.811,0,0,1,.635-2.72,4.724,4.724,0,0,1,1.734-1.876,4.845,4.845,0,0,1,4.94,0,4.87,4.87,0,0,1,1.752,1.882,5.963,5.963,0,0,1,0,5.4Z" transform="translate(-39.432 -3.575)"/><path class="a" d="M147.108,13.776a8.713,8.713,0,0,0-3.284-3.361,9.262,9.262,0,0,0-4.709-1.205,9.424,9.424,0,0,0-4.756,1.205,8.542,8.542,0,0,0-3.29,3.367,10.068,10.068,0,0,0-1.17,4.863,9.935,9.935,0,0,0,1.17,4.833,8.542,8.542,0,0,0,3.29,3.367,9.951,9.951,0,0,0,9.495,0,8.562,8.562,0,0,0,3.272-3.361,10,10,0,0,0,1.17-4.833A9.911,9.911,0,0,0,147.108,13.776Zm-3.776,7.606a4.492,4.492,0,0,1-1.71,1.841,5.053,5.053,0,0,1-5.012,0,4.613,4.613,0,0,1-1.728-1.841,5.741,5.741,0,0,1-.635-2.731,5.847,5.847,0,0,1,.635-2.749,4.664,4.664,0,0,1,1.728-1.859,5.053,5.053,0,0,1,5.012,0,4.529,4.529,0,0,1,1.71,1.853,5.957,5.957,0,0,1,.623,2.755A5.824,5.824,0,0,1,143.332,21.383Z" transform="translate(-52.577 -3.575)"/><path class="a" d="M11.158,20.5a1.87,1.87,0,0,0-1.431-.665H8.67a1.442,1.442,0,0,1-1.17-.606,2.59,2.59,0,0,1-.534-1.692V9.423H8.949a2.108,2.108,0,0,0,1.5-.552,1.925,1.925,0,0,0,.612-1.431,2.013,2.013,0,0,0-.612-1.5,2.108,2.108,0,0,0-1.5-.552H6.966V1.959a2.2,2.2,0,0,0-.623-1.6A2.13,2.13,0,0,0,4.763-.28,2.139,2.139,0,0,0,3.183.355a2.2,2.2,0,0,0-.623,1.6v3.42H1.788a2.108,2.108,0,0,0-1.5.552,2,2,0,0,0-.612,1.5A1.915,1.915,0,0,0,.292,8.858a2.108,2.108,0,0,0,1.5.552h.778v8.111a7.434,7.434,0,0,0,.79,3.432,6.258,6.258,0,0,0,2.2,2.446,5.622,5.622,0,0,0,3.123.8h.558a2.514,2.514,0,0,0,1.74-.493,2.1,2.1,0,0,0,.742-1.639,2.3,2.3,0,0,0-.558-1.568Z" transform="translate(0.32 0.28)"/><path class="a" d="M32.855,10.44A8.338,8.338,0,0,0,28.4,9.27a8.991,8.991,0,0,0-4.649,1.211,8.535,8.535,0,0,0-3.224,3.379,10.208,10.208,0,0,0-1.152,4.845,9.673,9.673,0,0,0,1.217,4.845,8.742,8.742,0,0,0,3.4,3.355,9.974,9.974,0,0,0,8.07.629,9.193,9.193,0,0,0,2.8-1.484,1.821,1.821,0,0,0,.754-1.479A2.029,2.029,0,0,0,34.826,23a1.966,1.966,0,0,0-1.36-.475A2.241,2.241,0,0,0,32.047,23a5.165,5.165,0,0,1-1.473.754,5.553,5.553,0,0,1-5.3-.891A4.75,4.75,0,0,1,23.7,20.475H34.678a2.029,2.029,0,0,0,2.078-2.055,10.758,10.758,0,0,0-1-4.709A7.553,7.553,0,0,0,32.855,10.44Zm-9.091,6.181a4.7,4.7,0,0,1,1.389-2.215,4.654,4.654,0,0,1,3.242-1.1,3.846,3.846,0,0,1,2.862,1.075,4.552,4.552,0,0,1,1.217,2.239Z" transform="translate(-7.678 -3.599)"/><path class="a" d="M72.981,9.27a3.546,3.546,0,0,0-3.509,3.575v7.624a.826.826,0,1,0,1.651,0V12.845a1.859,1.859,0,1,1,3.717,0V32.487c0,.065-.006.131-.012.2a1.757,1.757,0,0,1-1.74,1.716,1.728,1.728,0,0,1-1.449-.79c-.018-.024-.024-.036-.024-.042L58.1,11.271a3.762,3.762,0,0,0-3.076-2,3.546,3.546,0,0,0-3.509,3.575V27.654a3.51,3.51,0,1,0,7.019.012l.018-7.321a.839.839,0,0,0-.813-.855h-.012a.833.833,0,0,0-.825.831l-.018,7.333a1.859,1.859,0,1,1-3.717,0V12.845a1.877,1.877,0,0,1,1.859-1.894,2.178,2.178,0,0,1,1.633,1.128c.006.018.018.03.024.048L70.208,34.447a3.742,3.742,0,0,0,.226.315,3.325,3.325,0,0,0,.825.754,3.094,3.094,0,0,0,1.484.528c.03.006.315.018.35.018A3.43,3.43,0,0,0,76.5,32.6V12.845A3.551,3.551,0,0,0,72.981,9.27Z" transform="translate(-20.734 -3.599)"/></svg>
