<svg width="26" height="36" viewBox="0 0 26 36" fill="none" xmlns="http://www.w3.org/2000/svg">
<path fill-rule="evenodd" clip-rule="evenodd" d="M18.4816 17.1667L18.4981 6.16666C18.4981 3.12699 16.0378 0.666656 13 0.666656C9.96396 0.666656 7.49996 3.12699 7.49996 6.16666V17.1667C7.49996 20.2027 9.96396 22.6667 13 22.6667C16.0378 22.6667 18.4816 20.2027 18.4816 17.1667ZM22.7148 17.1667C22.7148 22.6667 18.0636 26.5167 13 26.5167C7.93813 26.5167 3.28329 22.6667 3.28329 17.1667H0.166626C0.166626 23.4275 5.15146 28.5938 11.1666 29.483V35.5H14.8333V29.483C20.8448 28.5938 25.8333 23.4275 25.8333 17.1667H22.7148Z" fill="#175C54"/>
</svg>
