<svg xmlns="http://www.w3.org/2000/svg" width="120.69" height="127.5" viewBox="0 0 120.69 127.5"><defs><style>.a,.b,.c,.d,.e,.f,.g,.h,.i,.j,.n,.p,.q,.s,.t,.u{fill:none;}.c,.d,.e,.f,.g{stroke:#75e7d9;}.c,.d,.e,.f,.g,.h,.i,.j,.n,.o,.p,.q,.r,.s,.t{stroke-linecap:round;}.c,.d,.e,.f,.g,.h,.i,.o,.p,.r{fill-rule:evenodd;}.h,.j,.l,.n,.o,.p{stroke:#595959;}.i,.q,.r,.s,.t,.u{stroke:#00baa4;}.j,.o,.p,.q,.r,.s{stroke-linejoin:round;}.j,.l,.n,.q{stroke-miterlimit:10;}.k{fill:#e8e8e8;}.l,.o,.r{fill:#fff;}.m{fill:#d4f9f5;}.r,.s,.t,.u{stroke-width:0.75px;}.v,.w{stroke:none;}.w{fill:#595959;}</style></defs><g transform="translate(-776.146 -122.5)"><g class="a" transform="translate(865 156)"><path class="v" d="M13.5,0A13.5,13.5,0,1,1,0,13.5,13.5,13.5,0,0,1,13.5,0Z"/><path class="w" d="M 13.5 1 C 10.16113090515137 1 7.022109985351562 2.300230026245117 4.661169052124023 4.661169052124023 C 2.300230026245117 7.022109985351562 1 10.16113090515137 1 13.5 C 1 16.83887100219727 2.300230026245117 19.97789001464844 4.661169052124023 22.33882904052734 C 7.022109985351562 24.69976997375488 10.16113090515137 26 13.5 26 C 16.83887100219727 26 19.97789001464844 24.69976997375488 22.33882904052734 22.33882904052734 C 24.69976997375488 19.97789001464844 26 16.83887100219727 26 13.5 C 26 10.16113090515137 24.69976997375488 7.022109985351562 22.33882904052734 4.661169052124023 C 19.97789001464844 2.300230026245117 16.83887100219727 1 13.5 1 M 13.5 0 C 20.95584106445312 0 27 6.044160842895508 27 13.5 C 27 20.95584106445312 20.95584106445312 27 13.5 27 C 6.044160842895508 27 0 20.95584106445312 0 13.5 C 0 6.044160842895508 6.044160842895508 0 13.5 0 Z"/></g><g transform="translate(3237 -12621)"><path class="b" d="M0,8.712V7.089a1,1,0,0,1,1-1H19.483V0h2.435V8.712Z" transform="translate(-2439.084 12821.869)"/><path class="b" d="M0,8.712V7.089a1,1,0,0,1,1-1H19.483V0h2.435V8.712Z" transform="translate(-2439.084 12816.869)"/><g transform="translate(0 2.266)"><path class="b" d="M0,9.455V7.609a1,1,0,0,1,1-1H21.148V0h2.643V9.455Z" transform="translate(-2436.869 12828.805)"/><path class="b" d="M0,9.455V7.609a1,1,0,0,1,1-1H21.148V0h2.643V9.455Z" transform="translate(-2436.869 12821.207)"/><g transform="translate(-2465 12740.733)"><g transform="translate(90.619 23.392) rotate(-39)"><g transform="translate(3.25 26.097) rotate(-98)"><path class="c" d="M0,0V6.968" transform="translate(0 14.385)"/><path class="d" d="M0,0V6.968" transform="translate(16.47 0) rotate(-81)"/><path class="e" d="M0,0V9.755" transform="matrix(0.731, -0.682, 0.682, 0.731, 10.097, 9.145)"/><path class="f" d="M0,0V4.877" transform="matrix(0.883, -0.469, 0.469, 0.883, 5.521, 13.118)"/><path class="g" d="M0,0V4.877" transform="translate(14.458 4.677) rotate(-60)"/></g></g><g transform="translate(115.567 73.532)"><path class="h" d="M4.5.3V7.818" transform="translate(-0.572 -0.3)"/><path class="h" d="M0,0V7.856" transform="translate(0 3.666) rotate(-90)"/></g><g transform="translate(81.832 55.335)"><path class="i" d="M4.5.3V7.818" transform="translate(-0.572 -0.3)"/><path class="i" d="M0,0V7.856" transform="translate(0 3.666) rotate(-90)"/></g><g transform="translate(22.551 31.051)"><path class="i" d="M3.5.5V5.737" transform="translate(-0.881 -0.5)"/><path class="i" d="M0,0V5.237" transform="translate(0 2.619) rotate(-90)"/></g><path class="j" d="M.5,43V18.5a18,18,0,0,1,36,0V100a18,18,0,0,0,36,0V65.5" transform="translate(34.5 0.501)"/></g></g></g><ellipse class="k" cx="31.793" cy="4.901" rx="31.793" ry="4.901" transform="translate(776.146 240.199)"/><g transform="translate(-753.781 2495)"><g transform="translate(1532.73 -2323)"><g transform="translate(0 0)"><path class="l" d="M45.023,49.1h-42A3.023,3.023,0,0,1,0,46.077V3.026A3.023,3.023,0,0,1,3.026,0h42a3.023,3.023,0,0,1,3.026,3.026V46.092A3.03,3.03,0,0,1,45.023,49.1Z" transform="translate(3.729)"/><path class="m" d="M2.459,0h48.9l2.331,7.641H0Z" transform="translate(1.011 4.371)"/><path class="m" d="M0,0H55.017V4.823a3.057,3.057,0,0,1-2.809,3.047l-1.927.156L45.363,6.208,40.742,8.4,36.175,6.208,31.55,8.4l-4.6-2.545L22.477,8.722,18.168,6.208,13.187,8.4,8.666,5.85,4.432,8.273,0,6.882Z" transform="translate(0.413 12.012)"/><path class="j" d="M54.972,7.32,51.762,0H3.729L0,7.32H.061L0,7.382v3.9a4.6,4.6,0,0,0,4.585,4.585A4.7,4.7,0,0,0,9.17,11.279a4.55,4.55,0,0,0,4.585,4.585,4.6,4.6,0,0,0,4.585-4.585,4.585,4.585,0,1,0,9.17,0,4.6,4.6,0,0,0,4.585,4.585h0a4.6,4.6,0,0,0,4.585-4.585,4.585,4.585,0,0,0,9.17,0,4.585,4.585,0,1,0,9.17,0v-3.9l-.061-.061Z" transform="translate(0 4.508)"/><path class="n" d="M0,.5H29.282" transform="translate(0.076 11.329)"/><path class="n" d="M0,.5H3.58" transform="translate(50.778 11.329)"/><path class="n" d="M14.732,14.916H1.375A1.379,1.379,0,0,1,0,13.54V1.375A1.379,1.379,0,0,1,1.375,0H14.732a1.379,1.379,0,0,1,1.375,1.375V13.54A1.389,1.389,0,0,1,14.732,14.916Z" transform="translate(10.683 26.622)"/><path class="n" d="M11.11,22.45H1.482A1.484,1.484,0,0,1,0,20.968V1.482A1.484,1.484,0,0,1,1.482,0H11.11a1.484,1.484,0,0,1,1.482,1.482V20.968A1.484,1.484,0,0,1,11.11,22.45Z" transform="translate(32.583 26.653)"/></g></g><g transform="translate(1587.759 -2297.074) rotate(90)"><g transform="translate(0 0)"><path class="o" d="M0,23.336H38.074V0H0Z"/><path class="p" d="M6.427,0H3.243V2.742H0V14.864H3.213l.03,3.131H6.427" transform="translate(34.798 21.235) rotate(180)"/><path class="p" d="M6.427,0H3.243V2.742H0V14.864H3.213l.03,3.131H6.427" transform="translate(2.702 3.066)"/><g transform="translate(22.153 20.172) rotate(180)"><path class="q" d="M5,33.448a2.981,2.981,0,1,0,2.981-2.981v.005a2.981,2.981,0,1,1,2.981-2.981" transform="translate(-5 -22.416)"/><line class="q" y1="2.094" transform="translate(2.981 14.012)"/><line class="q" y1="2.094" transform="translate(2.981 0)"/></g></g></g></g><g transform="translate(839.926 114.11)"><path class="r" d="M42.776,60.764a1.61,1.61,0,0,1-1.685,1.514H36.645a1.607,1.607,0,0,1-1.678-1.51v-9.9a1.609,1.609,0,0,1,1.678-1.511h4.446a1.61,1.61,0,0,1,1.685,1.511Z" transform="translate(-0.063 0)"/><line class="s" x2="2.037" transform="translate(37.865 60.629)"/><line class="t" x2="1.018" transform="translate(38.299 51.102)"/><line class="u" x2="8.389" transform="translate(34.574 59.076)"/></g></g></svg>